<?xml version="1.0" encoding="UTF-8"?>
<!-- Generator: Adobe Illustrator 19.2.0, SVG Export Plug-In . SVG Version: 6.00 Build 0)  -->
<svg version="1.1" id="Layer_1" xmlns="http://www.w3.org/2000/svg" xmlns:xlink="http://www.w3.org/1999/xlink" x="0px" y="0px" viewBox="0 0 200 80" style="enable-background:new 0 0 200 80;" xml:space="preserve">
<style type="text/css">
	.st0{fill:#9FACB3;}
</style>
<path class="st0" d="M48.2,59.4c-5.3,0-10.5,0-15.6,0c-1,0-2-0.1-2.9-0.2c-7.2-0.8-13.3-6.9-14.1-14.1c-1-8.9,4.6-16.5,13.4-18.2  c9-1.7,18,4.9,19,14c0.1,0.9,0.2,1.8,0.2,2.8c0,4.9,0,9.8,0,14.7C48.2,58.6,48.2,59,48.2,59.4z M44,46.9c0-1.3,0-2.6,0-3.9  c0-8.2-7.9-14-15.8-11.6c-6,1.8-9.6,7.6-8.6,13.6c1,5.7,6.5,10.3,12.4,10.1c1.8-0.1,3.3-1.4,3.5-3.2s-1-3.5-2.8-3.9  c-0.5,0-1,0-1.4,0c-1.9-0.2-3.4-0.9-4.3-2.7c-0.8-1.9-0.6-3.8,0.8-5.4c1.4-1.5,3.1-2.1,5.1-1.6c2.2,0.6,3.9,2.9,4,5.4  c0,2.6,0,5.2,0,7.8c0,2.1,1.6,3.6,3.6,3.6s3.5-1.6,3.6-3.7C44,50,44,48.4,44,46.9z"/>
<g>
	<path class="st0" d="M68.6,48.3h-8.9l-2,5.4H56l7.4-19.4h1.5l7.3,19.4h-1.7L68.6,48.3z M60.2,46.9H68l-3.9-10.5H64L60.2,46.9z"/>
	<path class="st0" d="M86.4,46.9c0,2.2-0.5,3.9-1.5,5.2s-2.3,1.9-4,1.9c-1,0-1.9-0.2-2.7-0.6c-0.8-0.4-1.4-0.9-1.9-1.6v7.5h-1.6v-20   H76l0.2,2.2c0.5-0.8,1.1-1.4,1.9-1.9c0.8-0.4,1.7-0.7,2.7-0.7c1.7,0,3.1,0.7,4.1,2.1c1,1.4,1.5,3.2,1.5,5.5   C86.4,46.5,86.4,46.9,86.4,46.9z M84.8,46.6c0-1.8-0.4-3.3-1.1-4.5s-1.8-1.7-3.2-1.7c-1.1,0-2,0.3-2.6,0.8c-0.7,0.5-1.2,1.2-1.5,2   v7c0.4,0.8,0.9,1.4,1.6,1.9s1.6,0.7,2.6,0.7c1.4,0,2.5-0.5,3.2-1.6s1.1-2.4,1.1-4.2L84.8,46.6L84.8,46.6z"/>
	<path class="st0" d="M101.6,46.9c0,2.2-0.5,3.9-1.5,5.2s-2.3,1.9-4,1.9c-1,0-1.9-0.2-2.7-0.6c-0.8-0.4-1.4-0.9-1.9-1.6v7.5H90v-20   h1.3l0.2,2.2c0.5-0.8,1.1-1.4,1.9-1.9c0.8-0.4,1.7-0.7,2.7-0.7c1.7,0,3.1,0.7,4.1,2.1c1,1.4,1.5,3.2,1.5,5.5L101.6,46.9L101.6,46.9   z M100,46.6c0-1.8-0.4-3.3-1.1-4.5s-1.8-1.7-3.2-1.7c-1.1,0-2,0.3-2.6,0.8c-0.7,0.5-1.2,1.2-1.5,2v7c0.4,0.8,0.9,1.4,1.6,1.9   s1.6,0.7,2.6,0.7c1.4,0,2.5-0.5,3.2-1.6s1.1-2.4,1.1-4.2L100,46.6L100,46.6z"/>
	<path class="st0" d="M115.3,49.6h-6.8l-1.3,4.2h-3.9l6.7-19.4h4l6.7,19.4h-3.9L115.3,49.6z M109.5,46.5h4.9l-2.4-7.6h-0.1   L109.5,46.5z"/>
	<path class="st0" d="M121.5,46.6c0-2.3,0.5-4.1,1.5-5.5s2.4-2.1,4.2-2.1c0.7,0,1.4,0.2,1.9,0.5c0.6,0.3,1.1,0.8,1.5,1.3v-7.9h3.9   v20.8h-3.4l-0.3-1.8c-0.5,0.7-1,1.2-1.6,1.5s-1.3,0.5-2.1,0.5c-1.8,0-3.1-0.6-4.1-1.9c-1-1.3-1.5-3-1.5-5.2L121.5,46.6L121.5,46.6z    M125.4,46.9c0,1.3,0.2,2.3,0.6,3s1.1,1.1,2.1,1.1c0.6,0,1.1-0.1,1.5-0.3s0.8-0.6,1-1v-6.2c-0.3-0.5-0.6-0.8-1-1.1   s-0.9-0.4-1.4-0.4c-1,0-1.6,0.4-2.1,1.3c-0.4,0.9-0.7,2-0.7,3.3L125.4,46.9L125.4,46.9z"/>
	<path class="st0" d="M142.8,48.4l0.3,1.3h0.1l0.3-1.3l2.4-9.1h4.1l-4.9,14.4h-3.7l-4.9-14.4h4.1L142.8,48.4z"/>
	<path class="st0" d="M155.6,53.7h-3.9V39.3h3.9V53.7z M155.6,36c0-1.1-0.9-1.9-1.9-1.9c-1.1,0-1.9,0.9-1.9,1.9   c0,1.1,0.9,1.9,1.9,1.9C154.7,37.9,155.6,37,155.6,36z"/>
	<path class="st0" d="M164.9,51c0.7,0,1.3-0.2,1.7-0.6c0.4-0.4,0.6-0.9,0.6-1.6h3.5v0.1c0,1.5-0.5,2.7-1.6,3.7s-2.5,1.5-4.2,1.5   c-2.2,0-3.8-0.7-5-2c-1.2-1.4-1.7-3.1-1.7-5.2v-0.4c0-2.1,0.6-3.9,1.7-5.2c1.2-1.4,2.8-2.1,5-2.1c1.8,0,3.2,0.5,4.3,1.5   s1.6,2.4,1.6,4v0.1h-3.6c0-0.7-0.2-1.4-0.6-1.9c-0.4-0.5-1-0.7-1.7-0.7c-1,0-1.8,0.4-2.2,1.2s-0.6,1.8-0.6,3.1v0.4   c0,1.3,0.2,2.3,0.6,3.1C163.1,50.6,163.8,51,164.9,51z"/>
	<path class="st0" d="M179.4,54c-2.1,0-3.7-0.7-5-2s-1.9-3-1.9-5.1v-0.5c0-2.1,0.6-3.9,1.8-5.3c1.2-1.4,2.8-2.1,4.7-2.1   s3.5,0.6,4.5,1.8c1.1,1.2,1.6,2.8,1.6,4.8v2.1h-8.6v0.1c0.1,0.9,0.4,1.7,1,2.3s1.3,0.9,2.3,0.9c0.9,0,1.6-0.1,2.2-0.3   c0.6-0.2,1.2-0.4,1.9-0.8l1.1,2.4c-0.6,0.5-1.4,0.9-2.3,1.2C181.6,53.9,180.5,54,179.4,54z M179,42c-0.7,0-1.3,0.3-1.7,0.8   c-0.4,0.6-0.7,1.3-0.8,2.2v0.1h4.8v-0.3c0-0.8-0.2-1.5-0.6-2C180.4,42.3,179.8,42,179,42z"/>
</g>
<g>
	<path class="st0" d="M18.7,13.9l-1,2.9h-1.2l3.1-9.2h1.4l3.2,9.2H23l-1-2.9H18.7z M21.8,12.9l-0.9-2.7c-0.2-0.6-0.3-1.2-0.5-1.7h0   c-0.1,0.5-0.3,1.1-0.5,1.7L19,12.9H21.8z"/>
	<path class="st0" d="M25.4,15.5c0.4,0.2,1,0.5,1.6,0.5c0.9,0,1.3-0.4,1.3-1c0-0.6-0.3-0.9-1.2-1.2c-1.2-0.4-1.8-1.1-1.8-1.9   c0-1.1,0.9-1.9,2.3-1.9c0.7,0,1.3,0.2,1.6,0.4l-0.3,0.9c-0.3-0.2-0.7-0.4-1.4-0.4c-0.7,0-1.1,0.4-1.1,0.9c0,0.5,0.4,0.8,1.3,1.1   c1.2,0.4,1.7,1,1.7,2c0,1.2-0.9,2-2.5,2c-0.7,0-1.4-0.2-1.9-0.5L25.4,15.5z"/>
	<path class="st0" d="M34,16.8V11h-0.9v-0.9H34V9.8c0-0.9,0.2-1.8,0.8-2.3c0.5-0.4,1.1-0.6,1.6-0.6c0.4,0,0.8,0.1,1,0.2L37.3,8   c-0.2-0.1-0.4-0.2-0.8-0.2c-1,0-1.3,0.9-1.3,1.9v0.4h1.6V11h-1.6v5.7H34z"/>
	<path class="st0" d="M38.4,13.7c0,1.6,1.1,2.3,2.3,2.3c0.9,0,1.4-0.2,1.8-0.3l0.2,0.9c-0.4,0.2-1.2,0.4-2.2,0.4   c-2,0-3.3-1.3-3.3-3.3s1.2-3.6,3.1-3.6c2.2,0,2.7,1.9,2.7,3.1c0,0.2,0,0.4,0,0.6H38.4z M41.9,12.8c0-0.8-0.3-2-1.7-2   c-1.2,0-1.8,1.1-1.9,2H41.9z"/>
	<path class="st0" d="M48.3,16.8l-0.1-0.8h0c-0.4,0.5-1.1,1-2,1c-1.3,0-2-0.9-2-1.9c0-1.6,1.4-2.5,4-2.5v-0.1c0-0.5-0.2-1.5-1.5-1.5   c-0.6,0-1.3,0.2-1.7,0.5l-0.3-0.8c0.5-0.4,1.3-0.6,2.2-0.6c2,0,2.5,1.4,2.5,2.7v2.5c0,0.6,0,1.1,0.1,1.6H48.3z M48.1,13.4   c-1.3,0-2.8,0.2-2.8,1.5c0,0.8,0.5,1.2,1.1,1.2c0.9,0,1.4-0.5,1.6-1.1c0-0.1,0.1-0.3,0.1-0.4V13.4z"/>
	<path class="st0" d="M52.6,8.2v1.9h1.7V11h-1.7v3.6c0,0.8,0.2,1.3,0.9,1.3c0.3,0,0.5,0,0.7-0.1l0.1,0.9c-0.2,0.1-0.6,0.2-1.1,0.2   c-0.6,0-1-0.2-1.3-0.5c-0.3-0.4-0.5-0.9-0.5-1.7V11h-1v-0.9h1V8.5L52.6,8.2z"/>
	<path class="st0" d="M61.2,15c0,0.7,0,1.3,0.1,1.8h-1.1l-0.1-1.1h0c-0.3,0.5-1,1.2-2.2,1.2c-1,0-2.3-0.6-2.3-2.9v-3.9h1.2v3.7   c0,1.3,0.4,2.1,1.5,2.1c0.8,0,1.4-0.6,1.6-1.1c0.1-0.2,0.1-0.4,0.1-0.6v-4.1h1.2V15z"/>
	<path class="st0" d="M63.3,12.2c0-0.8,0-1.5-0.1-2.1h1.1l0,1.3h0.1c0.3-0.9,1-1.5,1.8-1.5c0.1,0,0.2,0,0.3,0v1.1   c-0.1,0-0.2,0-0.4,0c-0.9,0-1.5,0.6-1.6,1.6c0,0.2-0.1,0.4-0.1,0.6v3.5h-1.2V12.2z"/>
	<path class="st0" d="M68.3,13.7c0,1.6,1.1,2.3,2.3,2.3c0.9,0,1.4-0.2,1.8-0.3l0.2,0.9c-0.4,0.2-1.2,0.4-2.2,0.4   c-2,0-3.3-1.3-3.3-3.3s1.2-3.6,3.1-3.6c2.2,0,2.7,1.9,2.7,3.1c0,0.2,0,0.4,0,0.6H68.3z M71.8,12.8c0-0.8-0.3-2-1.7-2   c-1.2,0-1.8,1.1-1.9,2H71.8z"/>
	<path class="st0" d="M80.2,7v8c0,0.6,0,1.3,0.1,1.7h-1.1l-0.1-1.2h0c-0.4,0.7-1.2,1.3-2.3,1.3c-1.6,0-2.8-1.4-2.8-3.4   c0-2.2,1.4-3.6,3-3.6c1,0,1.7,0.5,2,1h0V7H80.2z M79,12.8c0-0.2,0-0.4-0.1-0.5c-0.2-0.8-0.8-1.4-1.7-1.4c-1.2,0-2,1.1-2,2.6   c0,1.3,0.7,2.5,2,2.5c0.8,0,1.6-0.5,1.8-1.4c0-0.2,0.1-0.3,0.1-0.5V12.8z"/>
	<path class="st0" d="M91.2,13.4c0,2.5-1.7,3.5-3.3,3.5c-1.8,0-3.2-1.3-3.2-3.4c0-2.2,1.5-3.5,3.3-3.5C89.9,10,91.2,11.4,91.2,13.4z    M85.9,13.5c0,1.5,0.8,2.6,2,2.6c1.2,0,2-1.1,2-2.6c0-1.1-0.6-2.6-2-2.6C86.5,10.9,85.9,12.2,85.9,13.5z"/>
	<path class="st0" d="M92.7,11.9c0-0.7,0-1.2-0.1-1.8h1.1l0.1,1.1h0c0.3-0.6,1.1-1.2,2.2-1.2c0.9,0,2.3,0.5,2.3,2.8v4h-1.2v-3.8   c0-1.1-0.4-2-1.5-2c-0.8,0-1.4,0.6-1.6,1.2c-0.1,0.2-0.1,0.4-0.1,0.6v4h-1.2V11.9z"/>
</g>
</svg>