<?xml version="1.0" encoding="UTF-8"?>
<!-- Generator: Adobe Illustrator 19.2.0, SVG Export Plug-In . SVG Version: 6.00 Build 0)  -->
<svg version="1.1" id="Layer_1" inkscape:version="0.91 r13725" sodipodi:docname="forbes-vector-svg-logo.svg" xmlns:cc="http://creativecommons.org/ns#" xmlns:dc="http://purl.org/dc/elements/1.1/" xmlns:inkscape="http://www.inkscape.org/namespaces/inkscape" xmlns:rdf="http://www.w3.org/1999/02/22-rdf-syntax-ns#" xmlns:sodipodi="http://sodipodi.sourceforge.net/DTD/sodipodi-0.dtd" xmlns:svg="http://www.w3.org/2000/svg" xmlns="http://www.w3.org/2000/svg" xmlns:xlink="http://www.w3.org/1999/xlink" x="0px" y="0px" viewBox="0 0 200 80" style="enable-background:new 0 0 200 80;" xml:space="preserve">
<style type="text/css">
	.st0{fill:#9FACB3;}
</style>
<sodipodi:namedview bordercolor="#666666" borderopacity="1" gridtolerance="10" guidetolerance="10" id="namedview4" inkscape:current-layer="Layer_1" inkscape:cx="100" inkscape:cy="40" inkscape:pageopacity="0" inkscape:pageshadow="2" inkscape:window-height="728" inkscape:window-maximized="0" inkscape:window-width="1138" inkscape:window-x="0" inkscape:window-y="0" inkscape:zoom="1.44" objecttolerance="10" pagecolor="#ffffff" showgrid="false">
	</sodipodi:namedview>
<path id="path2995" inkscape:connector-curvature="0" class="st0" d="M69.5,57.1c-2.3-0.3-4.3-1.3-5.8-2.8c-1.3-1.3-2.1-2.6-2.7-4.5  c-0.9-3-0.9-6.8,0-9.7c0.9-2.8,3-5.3,5.5-6.5c3.5-1.8,8.4-1.6,11.7,0.3c2.9,1.7,4.7,4.8,5.2,9c0.2,1.3,0.1,4-0.2,5.1  c-1,4.5-3.8,7.7-7.9,8.9c-0.4,0.1-1.1,0.3-1.5,0.3C72.9,57.2,70.3,57.2,69.5,57.1C69.5,57.1,69.5,57.1,69.5,57.1z M72.9,55.2  c0.7-0.2,1.5-1,1.9-1.8c0.9-1.7,1.3-4.3,1.3-8.4c0-5.1-0.8-8.3-2.5-10c-0.7-0.7-1.2-0.9-2.1-0.9c-2,0-3.3,2.1-3.8,6.2  c-0.2,1.9-0.2,6.4,0,8.1C68.5,53.5,70.3,56,72.9,55.2C72.9,55.2,72.9,55.2,72.9,55.2z M109.9,57.1c-0.9-0.1-3.8-0.6-4.8-0.8  l-0.7-0.2l0.1-3.7c0.1-8.9,0.1-13.7,0.1-18.4c-0.1-4.6-0.1-5.1-0.3-5.8c-0.2-0.9-0.6-1.5-0.9-1.7c-0.2-0.1-0.6-0.3-0.9-0.3  c-1.2-0.3-1.1-0.2-1.1-0.8c0-0.3,0-0.5,0.1-0.6s9.7-1.9,10-1.9c0.1,0,0.1,1.2,0.1,5.5c0,3,0,5.5,0,5.5s0.4-0.2,0.8-0.3  c1.2-0.6,2.3-0.8,4-0.9c1.1,0,1.6,0,2.1,0.1c3.6,0.7,6.3,3.7,7.2,8c0.2,1.1,0.3,3.9,0.2,5.3c-0.1,1.2-0.5,2.8-0.9,3.8  c-1.6,3.9-4.9,6.5-9.3,7.1C114.5,57.2,111.3,57.2,109.9,57.1L109.9,57.1L109.9,57.1z M113.7,55.2c0.7-0.1,1.2-0.4,1.8-0.9  c1.4-1.3,2.5-3.9,2.9-7.2c0.2-1.3,0.1-4.4,0-5.5c-0.5-3-1.6-5-3.2-5.8c-0.7-0.3-0.8-0.4-1.6-0.4c-0.6,0-1.1,0.1-1.5,0.2l-0.6,0.2  v3.4c-0.1,4.4,0.1,15.4,0.2,15.7c0.1,0.2,0.2,0.2,0.5,0.3C113,55.3,113.2,55.3,113.7,55.2C113.7,55.2,113.7,55.2,113.7,55.2z   M136.9,57c-4.7-0.8-8-4.2-9.1-9c-0.1-0.6-0.2-1.3-0.2-2.7c-0.1-2.1,0.1-3.5,0.7-5.1c1.1-3.2,3-5.4,5.7-6.8c2.9-1.4,6.9-1.5,9.5-0.2  c2.9,1.5,4.6,4.4,5.1,8.6c0.1,0.6,0.1,1.2,0.1,1.5v0.5h-7h-7v0.8c0.1,1.9,0.5,3.6,1.2,5.1c0.3,0.7,0.6,1,1.3,1.7  c1.5,1.5,3,2.1,5.4,2.1c1.7,0,2.9-0.3,4.2-1.2c0.4-0.2,0.7-0.4,0.8-0.4c0.2,0,0.6,0.6,0.6,0.8c0,0.4-1.3,1.8-2.7,2.6  c-1.1,0.7-2.8,1.4-4.3,1.6C140.3,57.2,138,57.2,136.9,57L136.9,57L136.9,57z M139.9,41.7l1.6-0.1l-0.1-1.2c-0.2-4.1-1.2-6.3-2.8-6.3  c-1.8,0-3.2,2.3-3.8,6.1c-0.1,0.5-0.1,1-0.1,1.2v0.4h1.8C137.5,41.7,139,41.7,139.9,41.7L139.9,41.7L139.9,41.7z M155.8,57.1  c-1.7-0.2-4.3-0.8-5.2-1.1l-0.4-0.2l-0.1-2.1c0-1.2-0.1-2.8-0.1-3.5v-1.4l0.3-0.1c0.1-0.1,0.4-0.1,0.6-0.1h0.4l0.3,0.8  c1.3,3.1,2.8,4.8,4.7,5.3c0.7,0.2,2.1,0.2,2.7,0c1.5-0.5,2.4-1.7,2.4-3.3c0-1.9-1-2.8-4.9-4.3c-2.4-0.9-3.3-1.4-4.3-2.5  c-1.1-1.1-1.6-2.4-1.7-4.1c-0.1-2.1,0.5-3.9,2-5.4s3.4-2.4,6-2.6c2.3-0.2,5.9,0.3,7.7,1.1l0.3,0.1l0.1,1.9c0,1.1,0.1,2.5,0.1,3.1  v1.2l-0.5,0.2c-0.7,0.3-0.8,0.2-1.2-0.8c-1.1-3-2.4-4.4-4.5-4.8c-1.2-0.3-2.3,0-3,0.8c-0.6,0.6-0.8,1.2-0.9,2.1  c-0.1,1,0.1,1.6,0.7,2.2c0.8,0.8,2,1.6,4.5,2.6c3.1,1.3,4.5,2.4,5.3,3.9c0.5,1,0.7,1.8,0.6,3.4c0,1.2-0.1,1.4-0.3,2.2  c-0.9,2.6-2.9,4.3-5.9,5.1c-1,0.3-1.2,0.3-3.3,0.3C157.1,57.1,156,57.1,155.8,57.1L155.8,57.1z M37.1,56.5c-0.1,0-0.1-0.3-0.1-0.7  c0-0.8,0-0.7,1.5-1c1.2-0.2,1.6-0.4,2.1-1.1c1-1.3,1.2-3.8,1.2-14.1c0-9.7-0.2-11.7-1.2-13.2c-0.5-0.7-1.2-1-2.5-1.2l-1-0.1v-0.8  v-0.8l0.3-0.1c0.2,0,6.2,0,13.3,0h13l0.1,0.4c0,0.2,0.1,2.3,0.1,4.7l0.1,4.3L63.3,33c-1,0.3-1,0.3-1.5-0.9c-1.1-2.9-2.4-4.6-4.1-5.5  c-1.2-0.6-1.8-0.7-5.2-0.7h-3l-0.1,0.5c-0.1,0.9-0.2,6.9-0.2,9.7v2.8h0.9c0.5,0,1.4,0,2.1-0.1c1-0.1,1.3-0.1,1.7-0.3  c1-0.5,1.8-1.5,2.2-3.3l0.2-0.9h0.8h0.8V40v5.7h-0.8h-0.8L56,44.8c-0.4-1.7-1.2-2.9-2.2-3.3c-0.4-0.2-1.6-0.3-3.7-0.4h-1v2.1  c0,2.3,0.1,5.4,0.3,7.1c0.2,2.4,0.8,3.7,1.9,4.2c0.2,0.1,0.9,0.2,1.5,0.3S54,55,54,55c0.2,0.1,0.2,1.3,0,1.4  C53.9,56.6,37.3,56.6,37.1,56.5C37.1,56.5,37.1,56.5,37.1,56.5z M83.5,56.5c-0.1-0.1-0.1-0.3-0.1-0.7v-0.7l0.3-0.1  c0.2,0,0.6-0.1,0.9-0.2c0.9-0.2,1.4-0.7,1.7-1.6c0.2-0.8,0.3-3.3,0.4-8.4c0-6.2-0.1-7.7-0.7-8.5c-0.3-0.4-0.6-0.6-1.4-0.7  c-0.4-0.1-0.8-0.2-1-0.2s-0.2-0.1-0.2-0.6c0-0.4,0-0.5,0.2-0.6c0.3-0.1,9.6-2,9.9-2h0.2v1.4c0,0.8-0.1,1.9-0.1,2.5v1.1l0.3-0.6  c1.1-1.9,2.3-3.2,3.9-3.9c0.9-0.4,1.5-0.5,2.6-0.5c1.3,0,2.6,0.4,2.6,0.8c0,0.3-2.3,6.3-2.4,6.4c-0.1,0-0.5-0.1-1-0.4  c-1-0.5-2-0.7-2.9-0.7c-1.1,0-2.4,0.4-2.9,1c-0.2,0.2-0.2,0.2-0.3,3.7c-0.1,3.4,0.1,7.6,0.3,9.3c0.2,1.4,0.5,2.1,1.3,2.5  c0.3,0.1,1.9,0.3,2.5,0.3c0,0,0.1,0.3,0,0.7v0.7h-7C86.7,56.6,83.5,56.6,83.5,56.5C83.5,56.5,83.5,56.5,83.5,56.5z"/>
</svg>