<?xml version="1.0" encoding="UTF-8"?>
<!-- Generator: Adobe Illustrator 19.2.0, SVG Export Plug-In . SVG Version: 6.00 Build 0)  -->
<svg version="1.1" id="Layer_1" xmlns="http://www.w3.org/2000/svg" xmlns:xlink="http://www.w3.org/1999/xlink" x="0px" y="0px" viewBox="0 0 200 80" style="enable-background:new 0 0 200 80;" xml:space="preserve">
<style type="text/css">
	.st0{fill:#9FACB3;}
</style>
<g>
	<path class="st0" d="M73,54.1c0-0.2,0-0.4,0-0.6c-0.1,0-0.2,0-0.3,0.1c-1.3,0.4-2.6,0.6-3.9,0.7c-4.2,0.3-8.1-0.7-11.7-2.7   c-0.2-0.1-0.2-0.2-0.1-0.4c0.6-1.2,1.2-2.5,1.9-3.7c0.1-0.2,0.2-0.2,0.4-0.1c1.5,0.8,3,1.5,4.6,2c1.1,0.3,2.2,0.5,3.3,0.5   c1.4,0.1,2.7-0.1,3.9-0.6c0.7-0.3,1.3-0.7,1.8-1.2c0.1-0.1,0.2-0.3,0.2-0.4c0-1.8,0-3.6,0-5.4c0-0.3-0.2-0.4-0.4-0.6   c-1-0.7-2.1-1.3-3.3-1.6c-1.4-0.4-2.9-0.8-4.3-1.2c-1.5-0.4-2.8-1.1-4-2c-1.5-1.2-2.4-2.8-2.7-4.7C58,30.1,58.2,28,59.2,26   s2.5-3.3,4.5-4.2c1.5-0.7,3.1-1,4.7-1.1c1.5-0.1,2.9,0.1,4.3,0.3c0.3,0,0.3,0,0.3-0.4s-0.1-0.8,0-1.2v-0.1V16H25v48h48V54.1   C73,54.2,73,54.2,73,54.1z M55.1,42c-1.3,0-2.6,0-3.9,0c-0.4,0-0.4,0-0.4,0.4c0,1.3,0,2.6,0,3.9c0,0.3-0.1,0.4-0.4,0.4   c-1.1,0-2.2,0-3.3,0c-0.3,0-0.4-0.1-0.4-0.4c0-1.3,0-2.6,0-3.9c0-0.4,0-0.4-0.4-0.4c-1.3,0-2.6,0-3.9,0C42,42,42,42,42,41.6   c0-1.1,0-2.2,0-3.3c0-0.3,0.1-0.4,0.4-0.4c1.3,0,2.6,0,3.9,0c0.3,0,0.4-0.1,0.4-0.4c0-1.3,0-2.6,0-3.9c0-0.4,0-0.4,0.4-0.4   c1.1,0,2.2,0,3.3,0c0.3,0,0.4,0.1,0.4,0.4c0,0.7,0,1.3,0,2c0,0.6,0,1.3,0,1.9c0,0.3,0.1,0.4,0.4,0.4c1.3,0,2.6,0,3.9,0   c0.3,0,0.4,0.1,0.4,0.4c0,1.1,0,2.2,0,3.3C55.5,41.9,55.5,42,55.1,42z"/>
	<path class="st0" d="M72.7,25.6c-1.3-0.4-2.6-0.5-4-0.4c-1.2,0.1-2.3,0.5-3.2,1.3c-1.1,1-1.5,2.3-1.3,3.8c0.2,0.8,0.6,1.5,1.4,2   c0.7,0.4,1.5,0.8,2.3,1c1.5,0.5,2.9,0.9,4.4,1.3c0.2,0.1,0.7,0.1,0.7,0.2c0-0.1,0-0.2,0-0.3c0-2.7,0-5.5,0-8.2   C73,25.8,72.9,25.7,72.7,25.6z"/>
</g>
<g>
	<path class="st0" d="M92.2,25.3H95v5.2l4.9-5.2h3.5l-4.9,5l5.4,7.6h-3.5l-3.8-5.7L95,33.8v4.1h-2.8V25.3z"/>
	<path class="st0" d="M104.7,25.3h2.5V30h0.1c0.3-0.5,0.7-0.9,1.2-1.2s1-0.4,1.4-0.4c0.7,0,1.2,0.1,1.7,0.3s0.8,0.4,1,0.8   c0.2,0.3,0.4,0.7,0.5,1.2s0.2,1,0.2,1.5v5.6h-2.5v-5.2c0-0.8-0.1-1.3-0.4-1.7c-0.2-0.4-0.7-0.6-1.3-0.6c-0.7,0-1.2,0.2-1.5,0.6   s-0.5,1.1-0.5,2v4.8h-2.5V25.3H104.7z"/>
	<path class="st0" d="M114.9,33.3c0-0.7,0.1-1.4,0.3-2s0.5-1.1,1-1.5c0.4-0.4,0.9-0.7,1.5-1c0.6-0.2,1.2-0.3,1.9-0.3s1.4,0.1,2,0.3   c0.6,0.2,1.1,0.6,1.5,1s0.7,0.9,1,1.5s0.3,1.3,0.3,2s-0.1,1.4-0.3,2c-0.2,0.6-0.5,1.1-1,1.5s-0.9,0.7-1.5,1c-0.6,0.2-1.2,0.3-2,0.3   s-1.4-0.1-1.9-0.3c-0.6-0.2-1.1-0.5-1.5-1s-0.7-0.9-1-1.5C115,34.7,114.9,34.1,114.9,33.3z M117.4,33.3c0,0.4,0,0.7,0.1,1.1   c0.1,0.3,0.2,0.7,0.4,0.9c0.2,0.3,0.4,0.5,0.7,0.7c0.3,0.2,0.6,0.2,1.1,0.2s0.8-0.1,1.1-0.2c0.3-0.2,0.5-0.4,0.7-0.7   s0.3-0.6,0.4-0.9c0.1-0.3,0.1-0.7,0.1-1.1c0-0.4,0-0.7-0.1-1.1c-0.1-0.4-0.2-0.7-0.4-0.9c-0.2-0.3-0.4-0.5-0.7-0.7   c-0.3-0.2-0.6-0.3-1.1-0.3s-0.8,0.1-1.1,0.3s-0.5,0.4-0.7,0.7s-0.3,0.6-0.4,0.9C117.4,32.6,117.4,33,117.4,33.3z"/>
	<path class="st0" d="M128.5,27.4H126v-2.1h2.5V27.4z M126,28.8h2.5v9.1H126V28.8z"/>
	<path class="st0" d="M141.5,37.9h-3.1l-4.1-12.6h2.8l2.8,8.9l0,0l2.8-8.9h2.9L141.5,37.9z"/>
	<path class="st0" d="M148.8,27.4h-2.5v-2.1h2.5V27.4z M146.3,28.8h2.5v9.1h-2.5V28.8z"/>
	<path class="st0" d="M150.8,28.8h2.4V30h0.1c0.3-0.5,0.7-0.9,1.2-1.2c0.5-0.2,1-0.4,1.6-0.4c0.7,0,1.2,0.1,1.7,0.3s0.8,0.4,1,0.8   c0.2,0.3,0.4,0.7,0.5,1.2s0.2,1,0.2,1.5v5.6H157v-5.2c0-0.8-0.1-1.3-0.4-1.7c-0.2-0.4-0.7-0.6-1.3-0.6c-0.7,0-1.2,0.2-1.5,0.6   s-0.5,1.1-0.5,2v4.8h-2.5V28.8z"/>
	<path class="st0" d="M161.2,25.3h2.5V30h0.1c0.3-0.5,0.7-0.9,1.2-1.2s1-0.4,1.4-0.4c0.7,0,1.2,0.1,1.7,0.3s0.8,0.4,1,0.8   c0.2,0.3,0.4,0.7,0.5,1.2s0.2,1,0.2,1.5v5.6h-2.5v-5.2c0-0.8-0.1-1.3-0.4-1.7c-0.2-0.4-0.7-0.6-1.3-0.6c-0.7,0-1.2,0.2-1.5,0.6   s-0.5,1.1-0.5,2v4.8h-2.5V25.3H161.2z"/>
	<path class="st0" d="M172,25.3h2.5V28c0,0.4,0,0.8-0.2,1.1c-0.1,0.3-0.3,0.6-0.5,0.9s-0.5,0.5-0.8,0.6c-0.3,0.2-0.7,0.3-1,0.3v-1.2   c0.4-0.2,0.8-0.4,0.9-0.7c0.2-0.3,0.2-0.7,0.2-1.1H172V25.3z"/>
	<path class="st0" d="M177.3,34.9c0,0.3,0.1,0.5,0.2,0.7c0.1,0.2,0.3,0.4,0.4,0.5c0.2,0.1,0.4,0.2,0.6,0.3c0.2,0.1,0.5,0.1,0.7,0.1   s0.4,0,0.6-0.1c0.2,0,0.4-0.1,0.5-0.2c0.2-0.1,0.3-0.2,0.4-0.4c0.1-0.1,0.2-0.3,0.2-0.6c0-0.4-0.3-0.7-0.8-0.8s-1.2-0.4-2.1-0.6   c-0.4-0.1-0.7-0.2-1.1-0.3c-0.3-0.1-0.7-0.3-0.9-0.4s-0.5-0.4-0.7-0.7s-0.2-0.6-0.2-1c0-0.6,0.1-1.1,0.3-1.4s0.5-0.7,0.9-0.9   c0.4-0.2,0.8-0.4,1.3-0.5s1-0.1,1.4-0.1s1,0,1.4,0.1c0.5,0.1,0.9,0.3,1.2,0.5c0.4,0.2,0.7,0.5,0.9,0.9s0.4,0.8,0.4,1.4h-2.4   c0-0.5-0.2-0.8-0.5-1s-0.7-0.3-1.2-0.3c-0.1,0-0.3,0-0.5,0s-0.3,0.1-0.5,0.1c-0.1,0.1-0.3,0.1-0.3,0.3c-0.1,0.1-0.1,0.3-0.1,0.5   s0.1,0.4,0.2,0.5c0.2,0.1,0.4,0.3,0.6,0.3c0.3,0.1,0.6,0.2,0.9,0.2c0.3,0.1,0.7,0.1,1,0.2c0.4,0.1,0.7,0.2,1.1,0.3   c0.3,0.1,0.7,0.3,0.9,0.5c0.3,0.2,0.5,0.4,0.7,0.7s0.2,0.6,0.2,1.1c0,0.6-0.1,1.1-0.4,1.5c-0.2,0.4-0.6,0.7-0.9,1s-0.8,0.4-1.3,0.5   s-1,0.2-1.5,0.2s-1-0.1-1.6-0.2c-0.5-0.1-1-0.3-1.4-0.5s-0.7-0.6-1-1s-0.4-0.9-0.4-1.5h2.8V34.9z"/>
	<path class="st0" d="M92.4,50.9c0,0.5,0.1,0.9,0.2,1.2c0.2,0.3,0.4,0.6,0.7,0.8c0.3,0.2,0.6,0.3,1,0.4c0.4,0.1,0.8,0.1,1.2,0.1   c0.3,0,0.5,0,0.8-0.1s0.6-0.2,0.8-0.3c0.3-0.2,0.5-0.4,0.6-0.6s0.3-0.5,0.3-0.9c0-0.3-0.1-0.5-0.2-0.7s-0.3-0.4-0.5-0.5   s-0.4-0.2-0.6-0.3s-0.5-0.2-0.7-0.2l-2-0.5c-0.3-0.1-0.6-0.2-0.8-0.3c-0.3-0.1-0.5-0.3-0.7-0.4c-0.2-0.2-0.4-0.4-0.5-0.7   s-0.2-0.6-0.2-1c0-0.2,0-0.5,0.1-0.8s0.3-0.6,0.5-0.9c0.2-0.3,0.6-0.5,1-0.7s1-0.3,1.7-0.3c0.5,0,0.9,0.1,1.4,0.2s0.8,0.3,1.1,0.6   c0.3,0.3,0.6,0.6,0.8,0.9s0.3,0.8,0.3,1.3h-0.9c0-0.4-0.1-0.7-0.2-1s-0.3-0.5-0.6-0.7s-0.5-0.3-0.8-0.4s-0.6-0.1-1-0.1   c-0.3,0-0.6,0-0.9,0.1s-0.5,0.2-0.8,0.3S93.1,45.7,93,46c-0.1,0.2-0.2,0.5-0.2,0.9c0,0.2,0,0.4,0.1,0.6c0.1,0.2,0.2,0.3,0.3,0.4   s0.3,0.2,0.5,0.3s0.4,0.1,0.6,0.2l2.3,0.6c0.3,0.1,0.7,0.2,1,0.3s0.6,0.3,0.8,0.5s0.4,0.4,0.5,0.7s0.2,0.6,0.2,1c0,0.1,0,0.3,0,0.4   c0,0.2-0.1,0.4-0.2,0.6c-0.1,0.2-0.2,0.4-0.4,0.6c-0.2,0.2-0.4,0.4-0.6,0.6c-0.3,0.2-0.6,0.3-1,0.4c-0.4,0.1-0.9,0.2-1.5,0.2   s-1.1-0.1-1.6-0.2c-0.5-0.1-0.9-0.3-1.2-0.6c-0.3-0.3-0.6-0.6-0.8-1s-0.3-0.9-0.2-1.5L92.4,50.9L92.4,50.9z"/>
	<path class="st0" d="M105.9,54.1h-0.8v-1.3l0,0c-0.2,0.5-0.6,0.8-1,1.1c-0.4,0.2-0.9,0.4-1.4,0.4c-0.4,0-0.8-0.1-1.1-0.2   c-0.3-0.1-0.6-0.3-0.8-0.5s-0.3-0.5-0.4-0.8s-0.1-0.7-0.1-1.1v-4.5h0.8v4.5c0,0.6,0.2,1.1,0.4,1.4c0.3,0.3,0.7,0.5,1.4,0.5   c0.4,0,0.7-0.1,0.9-0.2c0.3-0.2,0.5-0.4,0.6-0.6s0.3-0.6,0.4-0.9c0.1-0.3,0.1-0.7,0.1-1v-3.7h0.8v6.9H105.9z"/>
	<path class="st0" d="M107.6,44.5h0.8v4l0,0c0.1-0.3,0.2-0.5,0.4-0.7c0.2-0.2,0.4-0.3,0.6-0.5c0.2-0.1,0.5-0.2,0.7-0.3   c0.3-0.1,0.5-0.1,0.8-0.1c0.5,0,1,0.1,1.4,0.3s0.7,0.5,1,0.8s0.5,0.7,0.6,1.2s0.2,0.9,0.2,1.4s-0.1,1-0.2,1.4s-0.3,0.8-0.6,1.2   c-0.3,0.3-0.6,0.6-1,0.8s-0.9,0.3-1.4,0.3c-0.6,0-1.1-0.1-1.5-0.4s-0.8-0.6-1-1.1l0,0v1.3h-0.8V44.5z M113.1,50.6   c0-0.4,0-0.7-0.1-1.1c-0.1-0.4-0.2-0.7-0.4-1c-0.2-0.3-0.4-0.5-0.7-0.7c-0.3-0.2-0.6-0.3-1-0.3s-0.8,0.1-1.1,0.3s-0.6,0.4-0.8,0.7   c-0.2,0.3-0.3,0.6-0.4,1s-0.1,0.7-0.1,1.1c0,0.4,0,0.7,0.1,1.1c0.1,0.4,0.2,0.7,0.4,1c0.2,0.3,0.4,0.5,0.8,0.7   c0.3,0.2,0.7,0.3,1.1,0.3s0.8-0.1,1-0.3c0.3-0.2,0.5-0.4,0.7-0.7s0.3-0.6,0.4-1C113.1,51.3,113.1,51,113.1,50.6z"/>
	<path class="st0" d="M116.6,47.1h1.4v0.7h-1.4v4.7c0,0.3,0,0.5,0.1,0.7s0.3,0.2,0.6,0.3c0.2,0,0.5,0,0.7,0v0.7c-0.1,0-0.3,0-0.4,0   s-0.3,0-0.4,0c-0.6,0-1-0.1-1.2-0.3s-0.3-0.6-0.3-1.2v-4.8h-1.2v-0.7h1.2V45h0.8v2.1H116.6z"/>
	<path class="st0" d="M119.3,47.1h0.8v1.6l0,0c0.2-0.6,0.6-1,1-1.3s1-0.4,1.6-0.4v0.8c-0.4,0-0.7,0-1.1,0.2   c-0.3,0.1-0.6,0.3-0.8,0.5s-0.4,0.5-0.5,0.8s-0.2,0.6-0.2,1V54h-0.8V47.1z"/>
	<path class="st0" d="M123.5,49.3c0-0.4,0.1-0.8,0.3-1.1c0.1-0.3,0.3-0.5,0.6-0.7s0.5-0.3,0.9-0.4s0.7-0.1,1.1-0.1   c0.3,0,0.6,0,0.9,0.1s0.6,0.2,0.8,0.3c0.2,0.2,0.4,0.4,0.6,0.7c0.2,0.3,0.2,0.7,0.2,1.1v3.7c0,0.3,0.2,0.5,0.5,0.5   c0.1,0,0.2,0,0.3-0.1V54c-0.1,0-0.2,0-0.3,0s-0.2,0-0.3,0c-0.2,0-0.4,0-0.5-0.1s-0.2-0.1-0.3-0.2c-0.1-0.1-0.1-0.2-0.1-0.4   s0-0.3,0-0.5l0,0c-0.2,0.2-0.3,0.4-0.5,0.6c-0.2,0.2-0.3,0.3-0.5,0.4c-0.2,0.1-0.4,0.2-0.7,0.3c-0.2,0.1-0.5,0.1-0.9,0.1   c-0.3,0-0.6,0-0.9-0.1s-0.5-0.2-0.7-0.4s-0.4-0.4-0.5-0.6c-0.1-0.3-0.2-0.6-0.2-0.9c0-0.5,0.1-0.9,0.3-1.1c0.2-0.3,0.5-0.5,0.9-0.6   s0.8-0.2,1.2-0.3s0.9-0.1,1.4-0.2c0.2,0,0.3,0,0.5-0.1c0.1,0,0.2-0.1,0.3-0.1c0.1-0.1,0.2-0.2,0.2-0.3s0.1-0.3,0.1-0.5   c0-0.3,0-0.5-0.1-0.7s-0.2-0.3-0.4-0.4c-0.2-0.1-0.4-0.2-0.6-0.2s-0.5-0.1-0.7-0.1c-0.5,0-1,0.1-1.3,0.4c-0.3,0.3-0.5,0.7-0.5,1.2   L123.5,49.3L123.5,49.3z M128,50.3L128,50.3c-0.1,0.1-0.2,0.2-0.3,0.2c-0.2,0-0.3,0.1-0.4,0.1c-0.4,0.1-0.7,0.1-1.1,0.2   c-0.4,0-0.7,0.1-1,0.2s-0.6,0.2-0.8,0.4s-0.3,0.4-0.3,0.8c0,0.2,0,0.4,0.1,0.6c0.1,0.2,0.2,0.3,0.3,0.4c0.1,0.1,0.3,0.2,0.5,0.3   s0.4,0.1,0.6,0.1c0.3,0,0.6,0,0.9-0.1s0.6-0.2,0.8-0.4c0.2-0.2,0.4-0.4,0.5-0.7s0.2-0.6,0.2-0.9C128,51.5,128,50.3,128,50.3z"/>
	<path class="st0" d="M135.5,49.3c-0.1-0.5-0.3-0.9-0.6-1.2s-0.8-0.4-1.3-0.4c-0.4,0-0.8,0.1-1.1,0.3s-0.6,0.4-0.8,0.7   s-0.4,0.6-0.5,1s-0.2,0.7-0.2,1.1c0,0.4,0.1,0.7,0.2,1.1c0.1,0.4,0.3,0.7,0.5,1s0.5,0.5,0.8,0.7s0.7,0.3,1.1,0.3   c0.3,0,0.5,0,0.7-0.1s0.4-0.2,0.6-0.4c0.2-0.2,0.3-0.4,0.4-0.6c0.1-0.2,0.2-0.5,0.2-0.8h0.8c-0.1,0.8-0.4,1.5-0.9,2   s-1.2,0.7-1.9,0.7c-0.5,0-1-0.1-1.4-0.3s-0.8-0.5-1-0.8c-0.3-0.3-0.5-0.7-0.6-1.2c-0.1-0.4-0.2-0.9-0.2-1.4s0.1-1,0.2-1.4   c0.1-0.4,0.4-0.8,0.6-1.2c0.3-0.3,0.6-0.6,1-0.8s0.9-0.3,1.4-0.3c0.7,0,1.4,0.2,1.9,0.6c0.5,0.4,0.8,1,0.9,1.8h-0.8V49.3z"/>
	<path class="st0" d="M138.9,47.1h1.4v0.7h-1.4v4.7c0,0.3,0,0.5,0.1,0.7s0.3,0.2,0.6,0.3c0.2,0,0.5,0,0.7,0v0.7c-0.1,0-0.3,0-0.4,0   c-0.1,0-0.3,0-0.4,0c-0.6,0-1-0.1-1.2-0.3s-0.3-0.6-0.3-1.2v-4.8h-1.2v-0.7h1.2V45h0.8L138.9,47.1L138.9,47.1z"/>
	<path class="st0" d="M141.6,44.5h0.8v1.4h-0.8V44.5z M141.6,47.1h0.8v7h-0.8V47.1z"/>
	<path class="st0" d="M147,46.9c0.5,0,1,0.1,1.4,0.3s0.8,0.5,1,0.8c0.3,0.3,0.5,0.7,0.6,1.2s0.2,0.9,0.2,1.4s-0.1,1-0.2,1.4   c-0.1,0.4-0.4,0.8-0.6,1.2c-0.3,0.3-0.6,0.6-1,0.8s-0.9,0.3-1.4,0.3s-1-0.1-1.4-0.3s-0.8-0.5-1-0.8c-0.3-0.3-0.5-0.7-0.6-1.2   c-0.1-0.4-0.2-0.9-0.2-1.4s0.1-1,0.2-1.4c0.1-0.4,0.4-0.8,0.6-1.2c0.3-0.3,0.6-0.6,1-0.8S146.4,46.9,147,46.9z M147,47.6   c-0.4,0-0.8,0.1-1.1,0.3s-0.6,0.4-0.8,0.7s-0.4,0.6-0.5,1s-0.2,0.7-0.2,1.1c0,0.4,0.1,0.7,0.2,1.1c0.1,0.4,0.3,0.7,0.5,1   s0.5,0.5,0.8,0.7s0.7,0.3,1.1,0.3c0.4,0,0.8-0.1,1.1-0.3s0.6-0.4,0.8-0.7s0.4-0.6,0.5-1s0.2-0.7,0.2-1.1c0-0.4-0.1-0.7-0.2-1.1   c-0.1-0.4-0.3-0.7-0.5-1s-0.5-0.5-0.8-0.7S147.4,47.6,147,47.6z"/>
	<path class="st0" d="M151.5,47.1h0.8v1.2l0,0c0.2-0.4,0.4-0.8,0.9-1c0.4-0.3,0.9-0.4,1.4-0.4s0.9,0.1,1.2,0.2s0.6,0.3,0.8,0.5   s0.3,0.5,0.4,0.8s0.1,0.7,0.1,1.1V54h-0.8v-4.3c0-0.3,0-0.6-0.1-0.8c-0.1-0.3-0.1-0.5-0.3-0.7c-0.1-0.2-0.3-0.3-0.5-0.4   c-0.2-0.1-0.5-0.2-0.9-0.2s-0.6,0.1-0.9,0.2c-0.3,0.1-0.5,0.3-0.7,0.5s-0.3,0.5-0.4,0.8c-0.1,0.3-0.2,0.6-0.2,1v4.1h-0.8V47.1z"/>
	<path class="st0" d="M159.3,54.1v-1.4h1.1v1.4H159.3z"/>
	<path class="st0" d="M167.4,49.3c-0.1-0.5-0.3-0.9-0.6-1.2s-0.8-0.4-1.3-0.4c-0.4,0-0.8,0.1-1.1,0.3s-0.6,0.4-0.8,0.7   s-0.4,0.6-0.5,1s-0.2,0.7-0.2,1.1c0,0.4,0.1,0.7,0.2,1.1c0.1,0.4,0.3,0.7,0.5,1s0.5,0.5,0.8,0.7s0.7,0.3,1.1,0.3   c0.3,0,0.5,0,0.7-0.1s0.4-0.2,0.6-0.4c0.2-0.2,0.3-0.4,0.4-0.6c0.1-0.2,0.2-0.5,0.2-0.8h0.8c-0.1,0.8-0.4,1.5-0.9,2   s-1.2,0.7-1.9,0.7c-0.5,0-1-0.1-1.4-0.3s-0.8-0.5-1-0.8c-0.3-0.3-0.5-0.7-0.6-1.2c-0.1-0.4-0.2-0.9-0.2-1.4s0.1-1,0.2-1.4   c0.1-0.4,0.4-0.8,0.6-1.2c0.3-0.3,0.6-0.6,1-0.8s0.9-0.3,1.4-0.3c0.7,0,1.4,0.2,1.9,0.6c0.5,0.4,0.8,1,0.9,1.8h-0.8V49.3z"/>
	<path class="st0" d="M172.5,46.9c0.5,0,1,0.1,1.4,0.3s0.8,0.5,1,0.8c0.3,0.3,0.5,0.7,0.6,1.2s0.2,0.9,0.2,1.4s-0.1,1-0.2,1.4   c-0.1,0.4-0.4,0.8-0.6,1.2c-0.3,0.3-0.6,0.6-1,0.8s-0.9,0.3-1.4,0.3s-1-0.1-1.4-0.3s-0.8-0.5-1-0.8c-0.3-0.3-0.5-0.7-0.6-1.2   c-0.1-0.4-0.2-0.9-0.2-1.4s0.1-1,0.2-1.4c0.1-0.4,0.4-0.8,0.6-1.2c0.3-0.3,0.6-0.6,1-0.8S171.9,46.9,172.5,46.9z M172.5,47.6   c-0.4,0-0.8,0.1-1.1,0.3s-0.6,0.4-0.8,0.7s-0.4,0.6-0.5,1s-0.2,0.7-0.2,1.1c0,0.4,0.1,0.7,0.2,1.1c0.1,0.4,0.3,0.7,0.5,1   s0.5,0.5,0.8,0.7s0.7,0.3,1.1,0.3s0.8-0.1,1.1-0.3s0.6-0.4,0.8-0.7s0.4-0.6,0.5-1s0.2-0.7,0.2-1.1c0-0.4-0.1-0.7-0.2-1.1   c-0.1-0.4-0.3-0.7-0.5-1s-0.5-0.5-0.8-0.7S172.9,47.6,172.5,47.6z"/>
	<path class="st0" d="M177,47.1h0.8v1.2l0,0c0.2-0.4,0.5-0.8,0.9-1s0.8-0.4,1.4-0.4c0.5,0,0.9,0.1,1.2,0.3s0.6,0.6,0.7,1   c0.2-0.5,0.5-0.8,0.9-1s0.8-0.3,1.3-0.3c1.5,0,2.3,0.8,2.3,2.4V54h-0.8v-4.7c0-0.6-0.1-1-0.4-1.3c-0.2-0.3-0.7-0.5-1.3-0.5   c-0.4,0-0.7,0.1-0.9,0.2c-0.2,0.1-0.4,0.3-0.6,0.6c-0.1,0.2-0.2,0.5-0.3,0.8s-0.1,0.6-0.1,0.9v3.9h-0.8v-4.7c0-0.2,0-0.5-0.1-0.7   c0-0.2-0.1-0.4-0.2-0.6c-0.1-0.2-0.3-0.3-0.5-0.4c-0.2-0.1-0.4-0.1-0.7-0.1c-0.4,0-0.7,0.1-0.9,0.2c-0.3,0.1-0.5,0.3-0.6,0.5   c-0.2,0.2-0.3,0.5-0.4,0.8s-0.1,0.6-0.1,1v3.9H177V47.1z"/>
</g>
</svg>