<?xml version="1.0" encoding="UTF-8"?>
<!-- Generator: Adobe Illustrator 19.2.0, SVG Export Plug-In . SVG Version: 6.00 Build 0)  -->
<svg version="1.1" id="Layer_1" xmlns="http://www.w3.org/2000/svg" xmlns:xlink="http://www.w3.org/1999/xlink" x="0px" y="0px" viewBox="0 0 200 80" style="enable-background:new 0 0 200 80;" xml:space="preserve">
<style type="text/css">
	.st0{fill:#9FACB3;}
</style>
<path id="logo_svg_path" class="st0" d="M119.3,42.1l0.8-0.2c1.1,0.9,2.3,1.4,3.6,1.4c3.4,0,7.6-4.2,7.6-9.1c0-0.8-0.1-1.1-0.5-1.2  h-0.1c-0.4,0-0.7,0.7-0.9,1.2c0,0.1-2,5-5.3,5c-1.4,0-2.4-0.7-3.1-2.1v-0.4v-0.1c1.2-4,2.1-8.1,2.3-11.7c0.3-4.4-0.7-8.1-2.6-10.2  c-1.1-1.1-2.4-1.8-3.8-1.8c-0.4,0-0.8,0.1-1.2,0.1c-4.6,1.1-6.4,5.9-5.6,14.7c0.3,3.4,2,6.7,4.7,9.3l0.1,0.5  c-2.5,6.2-5.6,9.9-8.3,9.9c-1.5,0-2.8-1.1-3.7-3.3v-0.5c2.7-4.3,4.3-8.9,4.4-12.4c0.1-2.5-0.3-4.2-1.1-5c-0.4-0.4-1-0.6-1.7-0.6  c-2.6,0-5.8,3.2-6.1,12.3c-0.1,2,0,3.8,0.1,5.5L98.7,44c-1.2,1.2-3,2.7-4.4,2.7h-0.1c-0.6,0-1.1-0.3-1.5-0.7c-0.8-0.9-1.2-2.6-1-5  c0.3-3.4,1.5-7.5,2.7-11.4c1.1-3.6,2.1-6.9,2.4-9.7c0.4-3.3-0.3-6-2-7.9c-1.5-1.7-3.8-2.6-6.6-2.6c-6.3,0-11.9,6.8-11.9,14.3  c0,4.6,1.7,6.8,5.3,6.8c2.8,0,4.8-1.6,5-4.1c0.1-1.6-0.3-2.5-0.6-3.4c-0.3-0.8-0.7-1.7-0.7-3.1c0-2.2,1-3.5,2.8-3.5  c0.1,0,0.2,0,0.3,0c1.8,0.1,2.1,1.7,2.1,4c0,2.2-1.2,6.4-2.5,10.8c-1.5,5.2-3,10.5-3,13.8c0,6,3,8.7,5.9,8.7c2.6,0,5.6-1.7,8.6-4.8  l0.8,0.2c1.3,3.3,3.5,5.1,6.4,5.1C113,54.2,117.3,46.6,119.3,42.1z M118,19.3c0.5,0.6,0.7,2,0.5,4.3c-0.2,2.6-0.7,5.5-1.4,8.3  l-0.9,0.1c-0.8-1.4-1.3-2.8-1.4-4c-0.3-6,0.9-8,1.4-8.5c0.4-0.4,0.7-0.5,1-0.5C117.5,19,117.8,19.1,118,19.3z"/>
<g>
	<path class="st0" d="M54.8,63.5l0.8,3c0.2,0.6,0.3,1.2,0.4,1.8h0c0.1-0.6,0.3-1.2,0.5-1.8l0.9-3h0.9l0.9,2.9   c0.2,0.7,0.4,1.3,0.5,1.9h0c0.1-0.6,0.3-1.2,0.4-1.9l0.8-2.9h1l-1.9,5.8h-1l-0.9-2.8c-0.2-0.6-0.4-1.2-0.5-1.9h0   c-0.1,0.7-0.3,1.3-0.5,1.9l-0.9,2.8h-1l-1.8-5.8H54.8z"/>
	<path class="st0" d="M63.7,66.6c0,1.4,0.9,2,2,2c0.8,0,1.2-0.1,1.6-0.3l0.2,0.8c-0.4,0.2-1,0.4-1.9,0.4c-1.8,0-2.9-1.2-2.9-2.9   s1-3.1,2.7-3.1c1.9,0,2.4,1.7,2.4,2.7c0,0.2,0,0.4,0,0.5H63.7z M66.8,65.9c0-0.7-0.3-1.7-1.5-1.7c-1.1,0-1.5,1-1.6,1.7H66.8z"/>
	<path class="st0" d="M69.1,69.3c0-0.4,0-1,0-1.5v-7h1v3.6h0c0.4-0.6,1-1.1,2-1.1c1.4,0,2.5,1.2,2.4,3c0,2.1-1.3,3.1-2.6,3.1   c-0.8,0-1.5-0.3-1.9-1.1h0l0,1H69.1z M70.1,67c0,0.1,0,0.3,0,0.4c0.2,0.7,0.8,1.2,1.6,1.2c1.1,0,1.8-0.9,1.8-2.2   c0-1.2-0.6-2.2-1.7-2.2c-0.7,0-1.4,0.5-1.6,1.3c0,0.1-0.1,0.3-0.1,0.4V67z"/>
	<path class="st0" d="M80.9,60.8v7c0,0.5,0,1.1,0,1.5H80l0-1h0c-0.3,0.6-1,1.1-2,1.1c-1.4,0-2.5-1.2-2.5-3c0-1.9,1.2-3.1,2.6-3.1   c0.9,0,1.5,0.4,1.8,0.9h0v-3.5H80.9z M79.9,65.9c0-0.1,0-0.3,0-0.4c-0.2-0.7-0.7-1.2-1.5-1.2c-1.1,0-1.7,1-1.7,2.2   c0,1.2,0.6,2.1,1.7,2.1c0.7,0,1.4-0.5,1.5-1.3c0-0.1,0-0.3,0-0.5V65.9z"/>
	<path class="st0" d="M83.3,66.6c0,1.4,0.9,2,2,2c0.8,0,1.2-0.1,1.6-0.3l0.2,0.8c-0.4,0.2-1,0.4-1.9,0.4c-1.8,0-2.9-1.2-2.9-2.9   s1-3.1,2.7-3.1c1.9,0,2.4,1.7,2.4,2.7c0,0.2,0,0.4,0,0.5H83.3z M86.4,65.9c0-0.7-0.3-1.7-1.5-1.7c-1.1,0-1.5,1-1.6,1.7H86.4z"/>
	<path class="st0" d="M88.6,68.3c0.3,0.2,0.9,0.4,1.4,0.4c0.8,0,1.1-0.4,1.1-0.9c0-0.5-0.3-0.8-1.1-1.1c-1-0.4-1.5-0.9-1.5-1.6   c0-0.9,0.8-1.7,2-1.7c0.6,0,1.1,0.2,1.4,0.4l-0.3,0.8c-0.2-0.1-0.6-0.3-1.2-0.3c-0.6,0-1,0.4-1,0.8c0,0.5,0.3,0.7,1.1,1   c1,0.4,1.5,0.9,1.5,1.8c0,1-0.8,1.7-2.2,1.7c-0.6,0-1.2-0.2-1.6-0.4L88.6,68.3z"/>
	<path class="st0" d="M94.6,61.9c0,0.4-0.3,0.6-0.7,0.6c-0.4,0-0.6-0.3-0.6-0.6c0-0.4,0.3-0.7,0.7-0.7   C94.4,61.2,94.6,61.5,94.6,61.9z M93.5,69.3v-5.8h1.1v5.8H93.5z"/>
	<path class="st0" d="M101.3,63.5c0,0.4,0,0.9,0,1.6v3.4c0,1.3-0.3,2.1-0.8,2.7c-0.6,0.5-1.4,0.7-2.1,0.7c-0.7,0-1.5-0.2-1.9-0.5   l0.3-0.8c0.4,0.2,1,0.5,1.7,0.5c1.1,0,1.9-0.6,1.9-2v-0.6h0c-0.3,0.5-0.9,1-1.8,1c-1.4,0-2.5-1.2-2.5-2.8c0-2,1.3-3.1,2.6-3.1   c1,0,1.6,0.5,1.8,1h0l0-0.9H101.3z M100.2,65.8c0-0.2,0-0.3-0.1-0.5c-0.2-0.6-0.7-1.1-1.5-1.1c-1,0-1.7,0.9-1.7,2.2   c0,1.1,0.6,2.1,1.7,2.1c0.6,0,1.2-0.4,1.5-1.1c0.1-0.2,0.1-0.4,0.1-0.6V65.8z"/>
	<path class="st0" d="M102.9,65.1c0-0.6,0-1.1,0-1.6h0.9l0.1,1h0c0.3-0.6,1-1.1,1.9-1.1c0.8,0,2.1,0.5,2.1,2.5v3.5h-1.1V66   c0-0.9-0.3-1.7-1.3-1.7c-0.7,0-1.2,0.5-1.4,1.1c0,0.1-0.1,0.3-0.1,0.5v3.5h-1.1V65.1z"/>
	<path class="st0" d="M110.2,66.6c0,1.4,0.9,2,2,2c0.8,0,1.2-0.1,1.6-0.3l0.2,0.8c-0.4,0.2-1,0.4-1.9,0.4c-1.8,0-2.9-1.2-2.9-2.9   s1-3.1,2.7-3.1c1.9,0,2.4,1.7,2.4,2.7c0,0.2,0,0.4,0,0.5H110.2z M113.2,65.9c0-0.7-0.3-1.7-1.5-1.7c-1.1,0-1.5,1-1.6,1.7H113.2z"/>
	<path class="st0" d="M115.6,65.3c0-0.7,0-1.3,0-1.8h0.9l0,1.1h0c0.3-0.8,0.9-1.3,1.6-1.3c0.1,0,0.2,0,0.3,0v1c-0.1,0-0.2,0-0.4,0   c-0.7,0-1.3,0.6-1.4,1.4c0,0.1,0,0.3,0,0.5v3.1h-1V65.3z"/>
	<path class="st0" d="M127.1,60.8v7c0,0.5,0,1.1,0,1.5h-0.9l0-1h0c-0.3,0.6-1,1.1-2,1.1c-1.4,0-2.5-1.2-2.5-3c0-1.9,1.2-3.1,2.6-3.1   c0.9,0,1.5,0.4,1.8,0.9h0v-3.5H127.1z M126,65.9c0-0.1,0-0.3,0-0.4c-0.2-0.7-0.7-1.2-1.5-1.2c-1.1,0-1.7,1-1.7,2.2   c0,1.2,0.6,2.1,1.7,2.1c0.7,0,1.4-0.5,1.5-1.3c0-0.1,0-0.3,0-0.5V65.9z"/>
	<path class="st0" d="M129.4,66.6c0,1.4,0.9,2,2,2c0.8,0,1.2-0.1,1.6-0.3l0.2,0.8c-0.4,0.2-1,0.4-1.9,0.4c-1.8,0-2.9-1.2-2.9-2.9   s1-3.1,2.7-3.1c1.9,0,2.4,1.7,2.4,2.7c0,0.2,0,0.4,0,0.5H129.4z M132.5,65.9c0-0.7-0.3-1.7-1.5-1.7c-1.1,0-1.5,1-1.6,1.7H132.5z"/>
	<path class="st0" d="M134.8,65.4c0-0.7,0-1.3,0-1.9h0.9l0,1h0c0.4-0.7,1.1-1.1,2.1-1.1c1.4,0,2.5,1.2,2.5,3c0,2.1-1.3,3.1-2.6,3.1   c-0.8,0-1.4-0.3-1.8-0.9h0v3.2h-1V65.4z M135.9,67c0,0.2,0,0.3,0,0.4c0.2,0.7,0.8,1.2,1.6,1.2c1.1,0,1.8-0.9,1.8-2.2   c0-1.2-0.6-2.2-1.7-2.2c-0.7,0-1.4,0.5-1.6,1.3c0,0.1-0.1,0.3-0.1,0.4V67z"/>
	<path class="st0" d="M146.9,66.4c0,2.1-1.5,3.1-2.9,3.1c-1.6,0-2.8-1.2-2.8-3c0-1.9,1.3-3.1,2.9-3.1   C145.8,63.4,146.9,64.6,146.9,66.4z M142.3,66.4c0,1.3,0.7,2.2,1.8,2.2c1,0,1.8-0.9,1.8-2.3c0-1-0.5-2.2-1.7-2.2   C142.8,64.2,142.3,65.3,142.3,66.4z"/>
	<path class="st0" d="M149.5,61.9v1.7h1.5v0.8h-1.5v3.1c0,0.7,0.2,1.1,0.8,1.1c0.3,0,0.5,0,0.6-0.1l0,0.8c-0.2,0.1-0.5,0.1-0.9,0.1   c-0.5,0-0.9-0.2-1.1-0.4c-0.3-0.3-0.4-0.8-0.4-1.5v-3.2h-0.9v-0.8h0.9v-1.4L149.5,61.9z"/>
</g>
</svg>